<svg width="113" height="32" viewBox="0 0 113 32" fill="none" xmlns="http://www.w3.org/2000/svg">
<g clip-path="url(#clip0)">
<path d="M15.6149 26.5181C15.8731 26.5181 16.0825 26.3056 16.0825 26.0435C16.0825 25.7813 15.8731 25.5688 15.6149 25.5688C15.3567 25.5688 15.1474 25.7813 15.1474 26.0435C15.1474 26.3056 15.3567 26.5181 15.6149 26.5181Z" fill="white"/>
<path d="M15.0343 28.1318C15.2598 28.1318 15.4427 27.9462 15.4427 27.7171C15.4427 27.4881 15.2598 27.3025 15.0343 27.3025C14.8087 27.3025 14.6258 27.4881 14.6258 27.7171C14.6258 27.9462 14.8087 28.1318 15.0343 28.1318Z" fill="white"/>
<path d="M14.6307 29.7206C14.7911 29.7206 14.9211 29.5887 14.9211 29.4259C14.9211 29.2631 14.7911 29.1311 14.6307 29.1311C14.4704 29.1311 14.3404 29.2631 14.3404 29.4259C14.3404 29.5887 14.4704 29.7206 14.6307 29.7206Z" fill="white"/>
<path d="M15.7626 31.4492C15.9556 31.4492 16.112 31.2904 16.112 31.0945C16.112 30.8986 15.9556 30.7397 15.7626 30.7397C15.5696 30.7397 15.4132 30.8986 15.4132 31.0945C15.4132 31.2904 15.5696 31.4492 15.7626 31.4492Z" fill="white"/>
<path d="M13.1888 29.5507C13.5775 29.5507 13.8925 29.2308 13.8925 28.8362C13.8925 28.4417 13.5775 28.1218 13.1888 28.1218C12.8001 28.1218 12.4851 28.4417 12.4851 28.8362C12.4851 29.2308 12.8001 29.5507 13.1888 29.5507Z" fill="white"/>
<path d="M12.8935 27.5322C13.5703 27.5322 14.1189 26.9752 14.1189 26.2882C14.1189 25.6011 13.5703 25.0442 12.8935 25.0442C12.2168 25.0442 11.6682 25.6011 11.6682 26.2882C11.6682 26.9752 12.2168 27.5322 12.8935 27.5322Z" fill="white"/>
<path d="M11.4811 30.7797C11.7556 30.7797 11.9782 30.5538 11.9782 30.2751C11.9782 29.9964 11.7556 29.7705 11.4811 29.7705C11.2066 29.7705 10.9841 29.9964 10.9841 30.2751C10.9841 30.5538 11.2066 30.7797 11.4811 30.7797Z" fill="white"/>
<path d="M6.06783 27.1526C6.28526 27.1526 6.46152 26.9737 6.46152 26.7529C6.46152 26.5322 6.28526 26.3533 6.06783 26.3533C5.8504 26.3533 5.67413 26.5322 5.67413 26.7529C5.67413 26.9737 5.8504 27.1526 6.06783 27.1526Z" fill="white"/>
<path d="M3.62692 23.7603C3.8362 23.7603 4.00585 23.5881 4.00585 23.3757C4.00585 23.1632 3.8362 22.991 3.62692 22.991C3.41764 22.991 3.24799 23.1632 3.24799 23.3757C3.24799 23.5881 3.41764 23.7603 3.62692 23.7603Z" fill="white"/>
<path d="M7.2194 25.6488C7.37975 25.6488 7.50975 25.5169 7.50975 25.3541C7.50975 25.1913 7.37975 25.0593 7.2194 25.0593C7.05904 25.0593 6.92905 25.1913 6.92905 25.3541C6.92905 25.5169 7.05904 25.6488 7.2194 25.6488Z" fill="white"/>
<path d="M10.364 25.2741C10.7826 25.2741 11.1219 24.9296 11.1219 24.5047C11.1219 24.0798 10.7826 23.7354 10.364 23.7354C9.94548 23.7354 9.60617 24.0798 9.60617 24.5047C9.60617 24.9296 9.94548 25.2741 10.364 25.2741Z" fill="white"/>
<path d="M10.2607 26.8378C10.5026 26.8378 10.6987 26.6387 10.6987 26.3931C10.6987 26.1476 10.5026 25.9485 10.2607 25.9485C10.0188 25.9485 9.82271 26.1476 9.82271 26.3931C9.82271 26.6387 10.0188 26.8378 10.2607 26.8378Z" fill="white"/>
<path d="M9.6603 28.0121C9.82065 28.0121 9.95065 27.8802 9.95065 27.7174C9.95065 27.5546 9.82065 27.4226 9.6603 27.4226C9.49994 27.4226 9.36995 27.5546 9.36995 27.7174C9.36995 27.8802 9.49994 28.0121 9.6603 28.0121Z" fill="white"/>
<path d="M8.6367 25.0243C8.76716 25.0243 8.87292 24.9169 8.87292 24.7845C8.87292 24.652 8.76716 24.5447 8.6367 24.5447C8.50624 24.5447 8.40048 24.652 8.40048 24.7845C8.40048 24.9169 8.50624 25.0243 8.6367 25.0243Z" fill="white"/>
<path d="M8.25284 23.8852C8.78555 23.8852 9.21739 23.4468 9.21739 22.906C9.21739 22.3652 8.78555 21.9268 8.25284 21.9268C7.72013 21.9268 7.28828 22.3652 7.28828 22.906C7.28828 23.4468 7.72013 23.8852 8.25284 23.8852Z" fill="white"/>
<path d="M6.18593 23.7354C6.32998 23.7354 6.44676 23.6168 6.44676 23.4706C6.44676 23.3244 6.32998 23.2058 6.18593 23.2058C6.04188 23.2058 5.92511 23.3244 5.92511 23.4706C5.92511 23.6168 6.04188 23.7354 6.18593 23.7354Z" fill="white"/>
<path d="M6.03831 22.3966C6.24759 22.3966 6.41724 22.2243 6.41724 22.0119C6.41724 21.7994 6.24759 21.6272 6.03831 21.6272C5.82903 21.6272 5.65938 21.7994 5.65938 22.0119C5.65938 22.2243 5.82903 22.3966 6.03831 22.3966Z" fill="white"/>
<path d="M7.26368 21.4923C7.58711 21.4923 7.8493 21.2261 7.8493 20.8977C7.8493 20.5694 7.58711 20.3032 7.26368 20.3032C6.94025 20.3032 6.67805 20.5694 6.67805 20.8977C6.67805 21.2261 6.94025 21.4923 7.26368 21.4923Z" fill="white"/>
<path d="M5.87098 17.7053C6.24333 17.7053 6.54518 17.3989 6.54518 17.0209C6.54518 16.6429 6.24333 16.3364 5.87098 16.3364C5.49863 16.3364 5.19678 16.6429 5.19678 17.0209C5.19678 17.3989 5.49863 17.7053 5.87098 17.7053Z" fill="white"/>
<path d="M4.06983 10.7109C4.44219 10.7109 4.74404 10.4045 4.74404 10.0265C4.74404 9.64848 4.44219 9.34204 4.06983 9.34204C3.69748 9.34204 3.39563 9.64848 3.39563 10.0265C3.39563 10.4045 3.69748 10.7109 4.06983 10.7109Z" fill="white"/>
<path d="M5.49204 20.7029C5.8644 20.7029 6.16625 20.3964 6.16625 20.0184C6.16625 19.6404 5.8644 19.334 5.49204 19.334C5.11969 19.334 4.81784 19.6404 4.81784 20.0184C4.81784 20.3964 5.11969 20.7029 5.49204 20.7029Z" fill="white"/>
<path d="M11.0382 29.2309C11.4106 29.2309 11.7124 28.9245 11.7124 28.5465C11.7124 28.1685 11.4106 27.8621 11.0382 27.8621C10.6659 27.8621 10.364 28.1685 10.364 28.5465C10.364 28.9245 10.6659 29.2309 11.0382 29.2309Z" fill="white"/>
<path d="M4.35034 18.145C4.57592 18.145 4.7588 17.9593 4.7588 17.7303C4.7588 17.5013 4.57592 17.3157 4.35034 17.3157C4.12475 17.3157 3.94188 17.5013 3.94188 17.7303C3.94188 17.9593 4.12475 18.145 4.35034 18.145Z" fill="white"/>
<path d="M3.29719 18.8644C3.42765 18.8644 3.53341 18.757 3.53341 18.6246C3.53341 18.4921 3.42765 18.3848 3.29719 18.3848C3.16673 18.3848 3.06097 18.4921 3.06097 18.6246C3.06097 18.757 3.16673 18.8644 3.29719 18.8644Z" fill="white"/>
<path d="M1.47144 18.4298C1.79487 18.4298 2.05706 18.1636 2.05706 17.8352C2.05706 17.5069 1.79487 17.2407 1.47144 17.2407C1.14801 17.2407 0.885818 17.5069 0.885818 17.8352C0.885818 18.1636 1.14801 18.4298 1.47144 18.4298Z" fill="white"/>
<path d="M3.51865 16.871C3.93721 16.871 4.27652 16.5266 4.27652 16.1016C4.27652 15.6767 3.93721 15.3323 3.51865 15.3323C3.1001 15.3323 2.76079 15.6767 2.76079 16.1016C2.76079 16.5266 3.1001 16.871 3.51865 16.871Z" fill="white"/>
<path d="M5.57572 15.8619C5.86653 15.8619 6.10228 15.6225 6.10228 15.3273C6.10228 15.0321 5.86653 14.7927 5.57572 14.7927C5.2849 14.7927 5.04915 15.0321 5.04915 15.3273C5.04915 15.6225 5.2849 15.8619 5.57572 15.8619Z" fill="white"/>
<path d="M4.32081 14.9378C4.49747 14.9378 4.64069 14.7924 4.64069 14.6131C4.64069 14.4337 4.49747 14.2883 4.32081 14.2883C4.14414 14.2883 4.00093 14.4337 4.00093 14.6131C4.00093 14.7924 4.14414 14.9378 4.32081 14.9378Z" fill="white"/>
<path d="M5.63969 14.0532C6.27024 14.0532 6.7814 13.5343 6.7814 12.8942C6.7814 12.254 6.27024 11.7351 5.63969 11.7351C5.00913 11.7351 4.49797 12.254 4.49797 12.8942C4.49797 13.5343 5.00913 14.0532 5.63969 14.0532Z" fill="white"/>
<path d="M3.20862 14.1133C3.53205 14.1133 3.79424 13.8472 3.79424 13.5188C3.79424 13.1905 3.53205 12.9243 3.20862 12.9243C2.88519 12.9243 2.623 13.1905 2.623 13.5188C2.623 13.8472 2.88519 14.1133 3.20862 14.1133Z" fill="white"/>
<path d="M7.15049 11.0058C7.63428 11.0058 8.02647 10.6077 8.02647 10.1166C8.02647 9.62544 7.63428 9.22729 7.15049 9.22729C6.66671 9.22729 6.27452 9.62544 6.27452 10.1166C6.27452 10.6077 6.66671 11.0058 7.15049 11.0058Z" fill="white"/>
<path d="M5.5265 9.30206C5.70316 9.30206 5.84637 9.15667 5.84637 8.97732C5.84637 8.79798 5.70316 8.65259 5.5265 8.65259C5.34983 8.65259 5.20662 8.79798 5.20662 8.97732C5.20662 9.15667 5.34983 9.30206 5.5265 9.30206Z" fill="white"/>
<path d="M3.21845 8.31294C3.41142 8.31294 3.56786 8.15413 3.56786 7.95823C3.56786 7.76232 3.41142 7.60352 3.21845 7.60352C3.02548 7.60352 2.86905 7.76232 2.86905 7.95823C2.86905 8.15413 3.02548 8.31294 3.21845 8.31294Z" fill="white"/>
<path d="M4.93596 6.41448C5.24309 6.41448 5.49206 6.16173 5.49206 5.84994C5.49206 5.53815 5.24309 5.2854 4.93596 5.2854C4.62884 5.2854 4.37987 5.53815 4.37987 5.84994C4.37987 6.16173 4.62884 6.41448 4.93596 6.41448Z" fill="white"/>
<path d="M9.73412 2.87235C10.0249 2.87235 10.2607 2.63302 10.2607 2.33779C10.2607 2.04255 10.0249 1.80322 9.73412 1.80322C9.4433 1.80322 9.20755 2.04255 9.20755 2.33779C9.20755 2.63302 9.4433 2.87235 9.73412 2.87235Z" fill="white"/>
<path d="M9.74889 4.67606C10.0397 4.67606 10.2755 4.43673 10.2755 4.1415C10.2755 3.84627 10.0397 3.60693 9.74889 3.60693C9.45807 3.60693 9.22232 3.84627 9.22232 4.1415C9.22232 4.43673 9.45807 4.67606 9.74889 4.67606Z" fill="white"/>
<path d="M12.367 4.81595C12.6578 4.81595 12.8935 4.57662 12.8935 4.28139C12.8935 3.98616 12.6578 3.74683 12.367 3.74683C12.0761 3.74683 11.8404 3.98616 11.8404 4.28139C11.8404 4.57662 12.0761 4.81595 12.367 4.81595Z" fill="white"/>
<path d="M10.9743 1.62858C11.1346 1.62858 11.2646 1.49661 11.2646 1.33382C11.2646 1.17103 11.1346 1.03906 10.9743 1.03906C10.8139 1.03906 10.6839 1.17103 10.6839 1.33382C10.6839 1.49661 10.8139 1.62858 10.9743 1.62858Z" fill="white"/>
<path d="M8.47429 6.92926C8.79772 6.92926 9.05992 6.66309 9.05992 6.33475C9.05992 6.00641 8.79772 5.74023 8.47429 5.74023C8.15086 5.74023 7.88867 6.00641 7.88867 6.33475C7.88867 6.66309 8.15086 6.92926 8.47429 6.92926Z" fill="white"/>
<path d="M10.8365 7.36877C11.2251 7.36877 11.5402 7.04892 11.5402 6.65436C11.5402 6.2598 11.2251 5.93994 10.8365 5.93994C10.4478 5.93994 10.1327 6.2598 10.1327 6.65436C10.1327 7.04892 10.4478 7.36877 10.8365 7.36877Z" fill="white"/>
<path d="M9.20755 8.1482C9.46575 8.1482 9.67506 7.93571 9.67506 7.67359C9.67506 7.41147 9.46575 7.19897 9.20755 7.19897C8.94935 7.19897 8.74004 7.41147 8.74004 7.67359C8.74004 7.93571 8.94935 8.1482 9.20755 8.1482Z" fill="white"/>
<path d="M8.06583 8.9776C8.2425 8.9776 8.38571 8.83221 8.38571 8.65286C8.38571 8.47351 8.2425 8.32812 8.06583 8.32812C7.88917 8.32812 7.74596 8.47351 7.74596 8.65286C7.74596 8.83221 7.88917 8.9776 8.06583 8.9776Z" fill="white"/>
<path d="M6.9192 8.23307C7.07955 8.23307 7.20955 8.1011 7.20955 7.93831C7.20955 7.77552 7.07955 7.64355 6.9192 7.64355C6.75884 7.64355 6.62885 7.77552 6.62885 7.93831C6.62885 8.1011 6.75884 8.23307 6.9192 8.23307Z" fill="white"/>
<path d="M13.5874 2.27282C13.8293 2.27282 14.0254 2.07375 14.0254 1.82818C14.0254 1.58262 13.8293 1.38354 13.5874 1.38354C13.3455 1.38354 13.1494 1.58262 13.1494 1.82818C13.1494 2.07375 13.3455 2.27282 13.5874 2.27282Z" fill="white"/>
<path d="M14.675 0.93403C14.868 0.93403 15.0244 0.775221 15.0244 0.57932C15.0244 0.383419 14.868 0.224609 14.675 0.224609C14.482 0.224609 14.3256 0.383419 14.3256 0.57932C14.3256 0.775221 14.482 0.93403 14.675 0.93403Z" fill="white"/>
<path d="M15.551 4.11136C15.8418 4.11136 16.0775 3.87203 16.0775 3.5768C16.0775 3.28157 15.8418 3.04224 15.551 3.04224C15.2602 3.04224 15.0244 3.28157 15.0244 3.5768C15.0244 3.87203 15.2602 4.11136 15.551 4.11136Z" fill="white"/>
<path d="M14.5274 6.11972C14.8834 6.11972 15.172 5.82671 15.172 5.46526C15.172 5.1038 14.8834 4.81079 14.5274 4.81079C14.1713 4.81079 13.8827 5.1038 13.8827 5.46526C13.8827 5.82671 14.1713 6.11972 14.5274 6.11972Z" fill="white"/>
<path d="M16.1415 23.8703C11.7469 23.8703 8.18886 20.2533 8.18886 15.7969C8.18394 11.3356 11.7469 7.71851 16.1415 7.71851V23.8703Z" fill="white"/>
<path d="M6.61409 1.15894L7.057 2.86254L8.73513 3.31218L7.057 3.76181L6.61409 5.46542L6.17118 3.76181L4.49306 3.31218L6.17118 2.86254L6.61409 1.15894Z" fill="white"/>
<path d="M1.17124 10.4961L1.49604 11.3504L2.33757 11.6851L1.49604 12.0149L1.17124 12.8692L0.841524 12.0149L0 11.6851L0.841524 11.3504L1.17124 10.4961Z" fill="white"/>
<path d="M7.84438 27.8621L8.1741 28.7164L9.01562 29.0511L8.1741 29.3808L7.84438 30.2351L7.51958 29.3808L6.67805 29.0511L7.51958 28.7164L7.84438 27.8621Z" fill="white"/>
<path d="M23.3954 13.9633V23.9102H19.7684V7.85327H23.6562L30.0734 18.1349V7.85327H33.6511V23.9102H29.852L23.3954 13.9633Z" fill="white"/>
<path d="M43.523 7.5835C48.4885 7.5835 50.9048 10.5261 50.9048 15.8767C50.9048 21.2273 48.4885 24.1699 43.523 24.1699C38.5575 24.1699 36.1216 21.2273 36.1216 15.8767C36.1216 10.5261 38.5575 7.5835 43.523 7.5835ZM43.4984 10.7059C40.9738 10.7059 39.7878 12.4445 39.7878 15.8817C39.7878 19.3139 40.9738 21.0775 43.4984 21.0775C46.0673 21.0775 47.209 19.3139 47.209 15.8817C47.2139 12.4495 46.0722 10.7059 43.4984 10.7059Z" fill="white"/>
<path d="M57.0317 7.85327H53.4097V23.9102H57.0317V7.85327Z" fill="white"/>
<path d="M65.6389 7.85327C69.4626 7.85327 72.1201 9.23714 72.1201 13.4737C72.1201 14.6527 71.6132 16.706 69.7924 17.98L72.627 23.9102H68.5621C67.7943 22.2615 67.066 20.6079 66.2786 18.9592H63.7737V23.9102H60.1517V7.85327H65.6389ZM63.7737 15.8367H65.9489C67.814 15.8367 68.4095 14.4329 68.4095 13.3388C68.4095 12.2447 67.814 10.9757 65.9489 10.9757H63.7737V15.8367Z" fill="white"/>
<path d="M78.621 7.73853V20.7729H85.5943V23.9203H74.9695V7.73853H78.621Z" fill="white"/>
<path d="M94.5115 16.2514V15.6219C94.5115 14.7926 93.98 14.1831 92.1001 14.1831C91.0814 14.1831 89.3098 14.4079 88.1583 14.7427V11.7751C89.7527 11.4404 91.6326 11.2605 92.981 11.2605C96.1257 11.2605 98.0499 12.7892 98.0499 15.8667V23.9102H95.0381L94.7723 22.6962H94.6838C93.3796 23.6404 92.1395 24.09 90.9437 24.09C88.8177 24.09 87.1346 22.7411 87.1346 20.0683C87.1346 17.8002 88.7734 16.2464 91.8688 16.2464H94.5115V16.2514ZM94.5115 18.5895H92.4987C91.2586 18.5895 90.7074 19.0192 90.7074 19.8035C90.7074 20.7028 91.3275 21.1274 92.169 21.1274C93.0302 21.1274 93.8718 20.8577 94.5164 20.478V18.5895H94.5115Z" fill="white"/>
<path d="M105.358 24.1851C103.763 24.1851 102.08 23.8703 100.51 23.4207V6.76929H104.054V12.2298C105.117 11.6453 106.268 11.2656 107.597 11.2656C109.875 11.2656 112.046 12.9293 112.046 17.3756C112.041 22.6113 108.965 24.1851 105.358 24.1851ZM106.401 14.3881C105.761 14.3881 104.984 14.5879 104.054 15.0375V21.1076C104.605 21.2175 105.048 21.2425 105.491 21.2425C107.661 21.2425 108.434 20.0734 108.434 17.5805C108.434 15.4672 107.794 14.3881 106.401 14.3881Z" fill="white"/>
</g>
<defs>
<clipPath id="clip0">
<rect width="112.041" height="31.2245" fill="white" transform="translate(0 0.224609)"/>
</clipPath>
</defs>
</svg>
